<svg width="200" height="38" viewBox="0 0 200 38" fill="none" xmlns="http://www.w3.org/2000/svg">
<g clip-path="url(#clip0_124_3)">
<path d="M0 0H37.5V37.5H0V0ZM40.6 0H78.1V37.5H40.6V0ZM81.3 0H118.8V37.5H81.3V0ZM121.9 0H159.4V37.5H121.9V0ZM162.5 0H200V37.5H162.5V0Z" fill="#4B0082"/>
<path d="M18.8 25.3L24.5 23.9L26.9 31.2L18.8 25.3ZM31.9 15.8H21.9L18.8 6.3L15.7 15.8H5.7L13.8 21.7L10.7 31.2L18.8 25.3L23.8 21.7L31.9 15.8ZM59.4 25.3L65.1 23.9L67.5 31.2L59.4 25.3ZM72.5 15.8H62.5L59.4 6.3L56.3 15.8H46.3L54.4 21.7L51.3 31.2L59.4 25.3L64.4 21.7L72.5 15.8ZM100 25.3L105.7 23.9L108.1 31.2L100 25.3ZM113.1 15.8H103.1L100 6.3L96.9 15.8H86.9L95 21.7L91.9 31.2L100 25.3L105 21.7L113.1 15.8ZM140.6 25.3L146.3 23.9L148.7 31.2L140.6 25.3ZM153.8 15.8H143.8L140.7 6.3L137.6 15.8H127.6L135.7 21.7L132.6 31.2L140.7 25.3L145.7 21.7L153.8 15.8ZM181.3 25.3L187 23.9L189.4 31.2L181.3 25.3ZM194.4 15.8H184.4L181.3 6.3L178.2 15.8H168.2L176.3 21.7L173.2 31.2L181.3 25.3L186.3 21.7L194.4 15.8Z" fill="white"/>
</g>
<defs>
<clipPath id="clip0_124_3">
<rect width="200" height="37.5" fill="white"/>
</clipPath>
</defs>
</svg>
